<svg xmlns="http://www.w3.org/2000/svg" viewBox="0 0 258.31 445.44"><defs><style>.cls-1{fill:none;stroke:#000;}</style></defs><g id="Layer_2" data-name="Layer 2"><g id="Layer_1-2" data-name="Layer 1"><path class="cls-1" d="M.51,123.78q1.26-58.8,36.66-91T131.37.5q37.92,0,66.38,12T242,47.61q15.78,23.07,15.8,57.83,0,25.31-7.9,43.32A108.6,108.6,0,0,1,229,180.36q-13,13.59-26.87,25.6T175.3,230.31a100.89,100.89,0,0,0-20.86,28.13c-5.27,10.54-7.9,45.18-7.9,59.92H90.91c0-17.27,2.42-53.91,7.27-65.93a116.41,116.41,0,0,1,18.33-31.29,216.8,216.8,0,0,1,23.71-24.34q12.63-11.07,23.71-22.45a107.47,107.47,0,0,0,18.33-25.28q7.26-13.9,7.27-33.51,0-29.09-17.39-42.67t-47.09-13.6q-31,0-48.68,16.13t-19,49ZM120.16,374.63q14.94,0,24.92,9.69t10,25.19q0,15.51-10,25.47t-24.92,10q-15,0-24.91-10t-10-25.47q0-15.5,10-25.19T120.16,374.63Z"/></g></g></svg>