<svg xmlns="http://www.w3.org/2000/svg" viewBox="0 0 534.11 305.66"><g id="Layer_2" data-name="Layer 2"><g id="Layer_1-2" data-name="Layer 1"><path d="M109.76,294.16a3.93,3.93,0,0,0-1.75.34,3.08,3.08,0,0,0-1.25,1.26.33.33,0,0,1-.27.14,16.8,16.8,0,0,1-3.5-1.67,27.81,27.81,0,0,1-5.48-3.91,16.58,16.58,0,0,1-3.68-4.79c-.23.22-.45.45-.65.68A55.58,55.58,0,0,1,84.91,294a31.57,31.57,0,0,1-7.36,4.1l-.2-.45a49.89,49.89,0,0,0,9-6.33,38.17,38.17,0,0,0,6.71-8.2l2,1.23c.23.13.34.24.34.32s-.14.15-.41.22a2.79,2.79,0,0,0-.65.24,19.64,19.64,0,0,0,15.43,8.53ZM88.4,280.61l1.81,1.47c.21.16.31.28.31.36s-.09.14-.27.18a12.58,12.58,0,0,0-1.39.47,2.32,2.32,0,0,0-.76.53,72.07,72.07,0,0,1-9.56,7.5l-.27-.34A58.56,58.56,0,0,0,88.4,280.61Zm20.24-2.22q.27.24.27.36c0,.08-.11.14-.34.19a4.64,4.64,0,0,0-2.13.87,23.48,23.48,0,0,0-3,2.78l-.44-.27,2.28-3.62h-22c0,1.62-.29,2.71-.87,3.28a2.47,2.47,0,0,1-1.69.85.89.89,0,0,1-.64-.22.75.75,0,0,1-.24-.57,1.34,1.34,0,0,1,.77-1.07,3.76,3.76,0,0,0,1.29-1.57,9.91,9.91,0,0,0,.8-2.68h.45l.1,1.23h21.87l1.13-1.57ZM102,294.74c.12.07.17.14.17.2s-.06.15-.2.24l-.75.48v4.47c0,1,0,1.84.07,2.59s.07,1.21.07,1.37c0,.39-.24.66-.72.83a4.41,4.41,0,0,1-.82.26c-.16,0-.24-.15-.24-.44v-1.57h-12v1.43a.58.58,0,0,1-.12.38,1.52,1.52,0,0,1-.59.3,2.25,2.25,0,0,1-.74.17c-.17,0-.25-.2-.25-.61l.1-3.38V296c0-1,0-1.91-.1-2.66l1.87,1H99.19l.71-1Zm-2.42,7.68v-7.34h-12v7.34Zm-8.39-29.08A12.38,12.38,0,0,1,94.53,275a2,2,0,0,1,.87,1.34,1.75,1.75,0,0,1-.41,1.1c-.28.35-.52.52-.74.52a.61.61,0,0,1-.47-.17,4.54,4.54,0,0,1-.5-1.06,6.29,6.29,0,0,0-.77-1.47,9,9,0,0,0-1.55-1.5ZM97,281.16a34.62,34.62,0,0,1,4,1.69,16.86,16.86,0,0,1,2.75,1.69,5.21,5.21,0,0,1,1.31,1.31,2,2,0,0,1,.27,1,1.85,1.85,0,0,1-.24.91c-.15.28-.33.42-.51.42a.67.67,0,0,1-.47-.17,3.49,3.49,0,0,1-.55-.65,16.77,16.77,0,0,0-2.92-3.19,28.24,28.24,0,0,0-3.77-2.57Z"/><path d="M159.31,293.68a3.19,3.19,0,0,0-2.56,1.06.36.36,0,0,1-.31.2,14.82,14.82,0,0,1-2.59-1,21.83,21.83,0,0,1-4.21-2.44,17.71,17.71,0,0,1-3.47-3.45H140a39,39,0,0,1-6.72,5.9l.41.17h4.88l.92-1.22,2,1.26c.15.11.23.21.23.29s-.08.19-.23.32l-.82.69v4.47c0,.59,0,1.16,0,1.7l.07,1.4c0,.27-.22.5-.65.68a2.89,2.89,0,0,1-.83.28c-.13,0-.19-.13-.19-.38V302h-5.43v2.08a.61.61,0,0,1-.12.43,2.11,2.11,0,0,1-.56.3,1.85,1.85,0,0,1-.68.19c-.16,0-.24-.23-.24-.68l.07-3.21v-6.38a40.09,40.09,0,0,1-4.64,2.46l-.18-.38a46.82,46.82,0,0,0,10.92-8.77h-7.26a6.27,6.27,0,0,0-2.29.38l-1-1.27c1.1.09,1.93.14,2.49.14h8.67a31.81,31.81,0,0,0,3.45-5l2.05,1c.27.12.41.21.41.29s-.13.17-.38.26l-1.09.41c-1,1.18-1.82,2.21-2.6,3.07h13.93l1.33-1.88,2,1.88c.3.3.45.49.45.6s-.2.15-.58.15H146.86a17.24,17.24,0,0,0,12.45,5.19Zm-17.88-17.47-.75.58v2.63c0,.57,0,1.14,0,1.7l.07,1.37c0,.3-.21.53-.63.7a2.87,2.87,0,0,1-.84.25c-.13,0-.2-.11-.2-.34V282h-5.94v1.23c0,.32-.2.55-.59.7a2.88,2.88,0,0,1-.81.22c-.13,0-.2-.24-.2-.72l.07-3.17V277c0-1.36,0-2.3-.07-2.8l1.91,1.4h5l1-1.3,2,1.23c.2.14.31.25.31.34S141.63,276.05,141.43,276.21Zm-2.32,5.05v-4.95h-5.94v4.95Zm-.1,20v-6.38h-5.43v6.38Zm14.87-6.45-.2.24v5.28q0,.9,0,1.71l.07,1.4c0,.27-.21.5-.65.67a3.12,3.12,0,0,1-.83.25c-.13,0-.19-.11-.19-.34v-2h-5.94v2c0,.34-.21.59-.64.74s-.68.22-.72.22-.27-.22-.27-.65l.06-3.28v-5.25c0-1.41,0-2.34-.06-2.8l2,1.13h5.16l.51-.65,1.6.89c.16.06.24.13.24.2S154,294.67,153.88,294.81Zm1.74-18.87-.71.51v3c0,.57,0,1.14,0,1.7l.07,1.37c0,.3-.22.53-.66.71a3.06,3.06,0,0,1-.86.28c-.12,0-.19-.13-.19-.38V282h-6.14v.17c0,.32-.21.55-.65.71a3.37,3.37,0,0,1-.83.24c-.13,0-.19-.21-.19-.65l.07-3.27V277c0-1.39,0-2.32-.07-2.8l1.81,1.3h5.39l.85-1.4,2.08,1.19c.21.12.31.22.31.31S155.83,275.78,155.62,275.94Zm-3.51,25.28v-6.41h-5.94v6.41Zm-5.29-17.6q4.2.47,4.2,2.45a1.07,1.07,0,0,1-.22.7.74.74,0,0,1-.58.26c-.24,0-.5-.22-.77-.65a6.93,6.93,0,0,0-2.76-2.46Zm6.48-2.39v-5h-6.14v5Z"/><path d="M206.78,276.89l-1.13.72v20c0,1.71,0,3.06.07,4.06l.1,2.36a1.15,1.15,0,0,1-.65.95,2.23,2.23,0,0,1-.9.41c-.17,0-.26-.22-.26-.65v-2.59H182.24v1.6a1,1,0,0,1-.63.89,2.39,2.39,0,0,1-1,.31c-.21,0-.28-.39-.22-1.16q.24-2.76.24-6.32V279.08c0-2.39,0-4.16-.1-5.29l2.49,2.22h20.37l1.16-1.68,2.19,1.78a.54.54,0,0,1,.27.41A.47.47,0,0,1,206.78,276.89ZM204,301.36v-24.6H182.24v24.6ZM202.82,296c.22.23.34.41.34.53s-.14.19-.41.19H186a6.28,6.28,0,0,0-2.29.37l-1-1.26c1.09.09,1.92.14,2.49.14h7v-7.75h-3.92a6.51,6.51,0,0,0-2.15.34l-.93-1.23c1.07.1,1.87.14,2.39.14h4.61v-5.6h-5.15a6.27,6.27,0,0,0-2.29.38l-1-1.26c1.09.09,1.92.13,2.49.13H199l1.16-1.77,1.88,1.81a.74.74,0,0,1,.31.49c0,.15-.14.22-.41.22h-8.06v5.6h4.23l1.23-1.67,1.81,1.7a.74.74,0,0,1,.31.5c0,.15-.14.22-.41.22h-7.17V296h6l1.3-1.61Zm-6.28-6.28a16.61,16.61,0,0,1,2.27,1.25,5,5,0,0,1,1.14,1,1.4,1.4,0,0,1,.27.84,1.68,1.68,0,0,1-.25.88.78.78,0,0,1-.7.43q-.45,0-.72-.72a8.62,8.62,0,0,0-2.18-3.37Z"/><path d="M239.4,276.59c.14.13.2.23.2.3s-.09.14-.27.21a3.5,3.5,0,0,0-1.4.88,7,7,0,0,0-1.06,1.61l-2.56,5.15q4.44,4.71,4.44,7.92a4.1,4.1,0,0,1-1.76,3.27,6.45,6.45,0,0,1-2.16,1.4c-.14,0-.24-.17-.31-.53a1.76,1.76,0,0,0-.89-1,8.68,8.68,0,0,0-2.18-.9l.1-.41a11.33,11.33,0,0,0,2.93.47,2.33,2.33,0,0,0,2.63-2.66,8.46,8.46,0,0,0-1.07-3.79,17.68,17.68,0,0,0-2.44-3.61l2.79-8.29h-5.28v22c0,1.34,0,2.49,0,3.45s.05,1.5.05,1.65a.81.81,0,0,1-.1.39,1.87,1.87,0,0,1-.7.46,2.26,2.26,0,0,1-.84.29c-.16,0-.24-.14-.24-.44s0-1,.12-2.12.12-2.36.12-3.75V279.38c0-2.5,0-4.22-.1-5.15l2.18,1.6h4.51l1.22-1.36ZM242.47,289l1.94,1.4c.28.2.41.35.41.44s-.17.22-.53.4a1.73,1.73,0,0,0-.8.76q-2.18,3.79-3.87,6.3a24.72,24.72,0,0,1-3.6,4.28l-.41-.27Q240.86,295.08,242.47,289Zm15.7-3.65c.2.2.3.35.3.43s-.19.12-.58.12h-9.24v15a6,6,0,0,1-.33,2.33,3.21,3.21,0,0,1-1.23,1.31,3.33,3.33,0,0,1-1.14.6c-.16,0-.28-.17-.38-.52a2.76,2.76,0,0,0-1.43-1.74,13.12,13.12,0,0,0-2.52-1l.06-.44a23.31,23.31,0,0,0,4,.82c.58,0,.94-.13,1.07-.38a3,3,0,0,0,.21-1.33v-14.6h-6.79a5.81,5.81,0,0,0-2.22.34l-1.16-1.2c.86.07,1.74.1,2.63.1h14.94l1.57-2Zm-1.85-8.05c.21.2.31.34.31.42s-.15.12-.44.12H243.56a6.32,6.32,0,0,0-1.84.24L240.35,277a23.94,23.94,0,0,0,2.6.13h9.86l1.23-2Zm-4.94,12.35a41,41,0,0,1,4.38,5.17,7.26,7.26,0,0,1,1.59,3.43c0,1.66-.46,2.49-1.37,2.49a.48.48,0,0,1-.43-.31,7.08,7.08,0,0,1-.35-1.53,20.8,20.8,0,0,0-4.17-9Z"/><path d="M294.37,293l-.85.58a14.25,14.25,0,0,1-1.26,5.72q-1,1.73-4.77,3.62a29,29,0,0,1-8.54,2.64l-.14-.48a36.23,36.23,0,0,0,7.7-3.05,16.28,16.28,0,0,0,3.75-2.68,5.66,5.66,0,0,0,1.26-2.69,29.68,29.68,0,0,0,.36-5.09l2.42.89c.18.07.28.15.28.25S294.51,292.87,294.37,293Zm-7.88-13.78q4.85,2.42,4.84,4.64a1.88,1.88,0,0,1-.25,1,.78.78,0,0,1-.7.41c-.3,0-.51-.28-.65-.83a6.84,6.84,0,0,0-.48-1.38c-2.93,1.45-4.93,2.5-6,3.13a6.32,6.32,0,0,0-1.8,1.35c-.15.26-.27.39-.35.39a.28.28,0,0,1-.22-.13l-1.19-1.54a1.7,1.7,0,0,0,1-1.4v-5.29c0-.95-.05-2.24-.14-3.85l1.91,1.26a41.29,41.29,0,0,0,7.17-3l1.57,1.64a.38.38,0,0,1,.13.27c0,.09-.1.11-.32.07a4.39,4.39,0,0,0-.92-.07,5.92,5.92,0,0,0-1.55.27l-6.32,1.67v7.48l6.73-2.8a13.76,13.76,0,0,0-2.67-3Zm16.45,10.47-.79.55v3.86c0,.61,0,1.2.07,1.77l.07,1.5a.9.9,0,0,1-.68.87,3.55,3.55,0,0,1-.91.26c-.15,0-.22-.26-.22-.79l.07-3.61V290H285v8.23a.89.89,0,0,1-.11.49,2,2,0,0,1-.61.43,1.88,1.88,0,0,1-.75.27q-.24,0-.24-.48l.07-1.26c0-.46,0-1.22,0-2.29v-4.13c0-1.38,0-2.56-.13-3.51l2.08,1.5H300.1l.82-1.33,2,1.19c.16.1.24.19.24.29A.37.37,0,0,1,302.94,289.65Zm3.61-12.45-1,.65c0,1.52-.07,3.07-.22,4.66a5.81,5.81,0,0,1-.83,3,4.78,4.78,0,0,1-1.56,1.11,4.64,4.64,0,0,1-1.11.45c-.11,0-.19-.11-.23-.31a1.9,1.9,0,0,0-.91-1.23,13.66,13.66,0,0,0-3.05-1.06l.13-.48a20,20,0,0,0,3.45.48,4.52,4.52,0,0,0,1.55-.2,1.4,1.4,0,0,0,.72-.63,7.34,7.34,0,0,0,.36-2.15c.09-1.15.13-2.58.13-4.29h-5.56a12,12,0,0,1-2.74,6.88c-1.56,1.79-4.07,3.22-7.53,4.32L288,288a21.81,21.81,0,0,0,6.57-4.68,9.15,9.15,0,0,0,2.2-6.11h-1.4a6.22,6.22,0,0,0-2.28.38l-1-1.2a19,19,0,0,0,2.49.14h8.84l1-1.43,2.08,1.43c.18.14.27.25.27.34S306.71,277.09,306.55,277.2Zm-12.79,21.91a36.24,36.24,0,0,1,6.94,1.36,8.7,8.7,0,0,1,3.26,1.59,2.46,2.46,0,0,1,.68,1.72,1.87,1.87,0,0,1-.15.8c-.1.22-.24.33-.41.33a.71.71,0,0,1-.46-.17c-.14-.12-.4-.38-.79-.79a13.81,13.81,0,0,0-3.63-2.54,20,20,0,0,0-5.44-1.83Z"/><path d="M356.41,291.26,355,292a67.55,67.55,0,0,1-1.74,8.65,6,6,0,0,1-2.42,3.53,7.88,7.88,0,0,1-1.91,1,.38.38,0,0,1-.38-.27,2.84,2.84,0,0,0-1.43-1.73,13.36,13.36,0,0,0-2.73-1l.1-.51a19.72,19.72,0,0,0,4.08.58,3.44,3.44,0,0,0,2.2-.59c.48-.4,1-1.63,1.45-3.69a56.92,56.92,0,0,0,1.15-6.88h-4.78a26.52,26.52,0,0,1-5.53,9.06,24.5,24.5,0,0,1-8.91,5.17l-.24-.44a26.22,26.22,0,0,0,8.16-5.72,22.31,22.31,0,0,0,4.64-8.07H342Q338.62,299,328.7,303l-.24-.45q9.15-5,11.77-11.5h-4.84a56.55,56.55,0,0,1-8.09,7.68l-.34-.27q6.69-6.42,9.14-11.33l1.88,1.26c.11.07.17.14.17.21s-.13.16-.39.27a3.63,3.63,0,0,0-.72.41,7.39,7.39,0,0,0-1,1H353.1l1.12-1.29,2.15,1.77a.35.35,0,0,1,.17.27A.23.23,0,0,1,356.41,291.26Zm-4.54-14.74-1.16.82v5.18c0,1.16,0,2.11.07,2.85s.06,1.13.06,1.18c0,.27-.24.51-.73.72a3.84,3.84,0,0,1-.9.3c-.12,0-.17-.12-.17-.37v-.86H335.59a.85.85,0,0,1-.63.86,3.09,3.09,0,0,1-.87.27q-.21,0-.21-.36c0-.24,0-.78.06-1.64s.05-1.85.05-3V278c0-1.62,0-2.9-.11-3.86l2.19,1.74h12.49l.89-1.46,2.38,1.57q.24.17.24.3A.38.38,0,0,1,351.87,276.52ZM349,280.58v-4H335.59v4Zm0,5v-4.26H335.59v4.26Z"/><path d="M390.19,276.48c.18.12.27.21.27.29s-.16.17-.49.26a2.53,2.53,0,0,0-.79.34,2.11,2.11,0,0,0-.56.72,35.56,35.56,0,0,1-12.05,13.68l-.27-.44q8.63-7.65,11.23-16.38Zm5.25,17.82a32.56,32.56,0,0,1,3.91,3.08,20,20,0,0,1,2.78,3.09,5.14,5.14,0,0,1,1,2.94,1.39,1.39,0,0,1-.46,1.19,1.55,1.55,0,0,1-.94.34c-.52,0-.93-.53-1.23-1.6-.22-.75-.42-1.32-.58-1.71l-12.21,1.26c-2,.21-3.33.39-4.05.53a4.58,4.58,0,0,0-1.45.48,1.33,1.33,0,0,1-.49.26c-.08,0-.16-.07-.22-.21l-1.33-2.45a8.09,8.09,0,0,0,2.13-.75,6.84,6.84,0,0,0,1.71-1.64,28.94,28.94,0,0,0,2.25-3.6c.87-1.61,1.68-3.27,2.42-5a38.49,38.49,0,0,0,1.69-4.68l2.59,1.3c.21.09.31.18.31.26s-.18.18-.53.32a3.61,3.61,0,0,0-.84.44,2.07,2.07,0,0,0-.54.75,50.49,50.49,0,0,1-8.29,12.7l16.51-.62a26.62,26.62,0,0,0-4.43-6.34Zm13.14-5.05a6.62,6.62,0,0,0-1.29-.14,2.81,2.81,0,0,0-2.19.92.4.4,0,0,1-.27.14q-.58,0-4.05-3.86t-5.57-12.22l2.55.93q.24.06.24.18a.35.35,0,0,1-.17.26l-.95.72a18.13,18.13,0,0,0,4.4,8,15,15,0,0,0,7.3,4.56Z"/><path d="M451.1,283.07c.11.11.17.2.17.27s-.09.1-.27.1H430.25a6.27,6.27,0,0,0-2.29.38l-.95-1.26c1.09.09,1.92.13,2.49.13h17.95l1.4-1.87Zm5.39-6.59-1.26.72v24.3a8.31,8.31,0,0,1-.22,2.3,2.68,2.68,0,0,1-1.22,1.24,3.8,3.8,0,0,1-1.26.62c-.09,0-.19-.16-.29-.48a2.2,2.2,0,0,0-.53-.87,3.42,3.42,0,0,0-1.29-.72,23.3,23.3,0,0,0-2.84-.7l0-.47c2.27.27,3.76.41,4.45.41s1.12-.09,1.28-.26a1.44,1.44,0,0,0,.24-1v-25H432.33A6.27,6.27,0,0,0,430,277l-1-1.27a21,21,0,0,0,2.49.14h21.26l1.16-1.81,2.49,1.91c.18.14.27.23.27.29S456.67,276.39,456.49,276.48Zm-9.55,13-1.1.72v6.62c0,1.09,0,1.84,0,2.25l.1,1.12c0,.3-.22.54-.65.72a3.08,3.08,0,0,1-.83.27c-.13,0-.19-.15-.19-.47v-1.85H432.57v2.39a.83.83,0,0,1-.61.82,2.91,2.91,0,0,1-.84.24c-.15,0-.22-.15-.22-.44l.07-1.68c0-.7.07-1.47.07-2.32v-7.2c0-1.29,0-2.45-.11-3.48l2.15,1.71h10.58l1-1.57,2.32,1.71c.11.09.17.17.17.24S447.05,289.38,446.94,289.45Zm-2.63,8.63v-8.46H432.57v8.46Z"/><path d="M333.35,3.91V136.49H200.77V3.91H333.35M337.26,0H196.85V140.41H337.26V0Z"/><rect x="196.85" y="11.77" width="140.41" height="1.96"/><rect x="196.85" y="126.68" width="140.41" height="1.96"/><rect x="231.63" y="7.59" width="2.38" height="125.24"/><rect x="257.06" y="7.59" width="2.38" height="125.24"/><rect x="300.11" y="7.59" width="2.38" height="125.24"/><rect x="274.67" y="7.59" width="2.38" height="125.24"/><rect x="266.08" y="12.75" width="1.96" height="114.91"/><path d="M196.85,127.66v12.75h18.91V127.66Zm10,9A3.24,3.24,0,1,1,210,133.4,3.23,3.23,0,0,1,206.81,136.64Z"/><path d="M337.26,127.66v12.75H318.35V127.66Zm-10,9a3.23,3.23,0,1,0-3.23-3.23A3.23,3.23,0,0,0,327.3,136.64Z"/><path d="M196.85,12.75V0h18.91V12.75Zm10-9A3.24,3.24,0,1,0,210.05,7,3.24,3.24,0,0,0,206.82,3.76Z"/><path d="M337.26,12.75V0H318.35V12.75Zm-10-9A3.24,3.24,0,1,1,324.07,7,3.24,3.24,0,0,1,327.3,3.76Z"/><rect x="196.85" y="18.5" width="9.12" height="2.94"/><rect x="196.85" y="52.15" width="9.12" height="2.94"/><rect x="196.85" y="85.81" width="9.12" height="2.94"/><rect x="196.85" y="119.47" width="9.12" height="2.94"/><rect x="328.14" y="18.5" width="9.12" height="2.94"/><rect x="328.14" y="52.15" width="9.12" height="2.94"/><rect x="328.14" y="85.81" width="9.12" height="2.94"/><rect x="328.14" y="119.47" width="9.12" height="2.94"/><polygon points="232.81 88.75 249.52 89.36 249.52 90.6 232.81 91.2 232.81 88.75 232.81 88.75"/><rect x="243.7" y="86.81" width="2.45" height="6.34"/><polygon points="275.86 107.73 292.57 108.33 292.57 109.57 275.86 110.17 275.86 107.73 275.86 107.73"/><rect x="286.75" y="105.78" width="2.45" height="6.34"/><polygon points="258.25 110.17 241.54 109.57 241.54 108.33 258.25 107.73 258.25 110.17 258.25 110.17"/><rect x="244.92" y="105.78" width="2.45" height="6.34"/><path d="M461.77,29.33l-78-18.26L366.35,7v133.4l17.36-.1,78.06-.42,12-.07V32.14Zm8.28,106.79h-1a1.88,1.88,0,0,1-1.51.79,1.92,1.92,0,0,1-1.49-.78l-4.26,0-78.06.42-7,0a2.79,2.79,0,0,1-1.09.21,2.56,2.56,0,0,1-1-.2l-4.53,0v-125l4.27,1a2.68,2.68,0,0,1,1.29,0,3.68,3.68,0,0,1,1.3.61l6.79,1.59,78,18.27,4.19,1a1.54,1.54,0,0,1,1.56-.53,2.58,2.58,0,0,1,1.59,1.26h0l.94.21Z"/><polygon points="473.76 41.89 473.76 41.91 473.57 42.82 470.05 42.08 451.54 38.15 449.27 37.67 433.49 34.32 431.23 33.83 426.71 32.88 424.86 32.48 420.17 31.49 417.91 31.02 399.59 27.12 397.33 26.64 370.07 20.86 366.35 20.07 366.15 20.03 366.35 19.12 366.55 18.21 370.07 18.95 383.71 21.85 397.33 24.74 399.59 25.22 417.91 29.11 420.17 29.59 431.23 31.93 433.49 32.41 449.27 35.77 451.54 36.25 461.77 38.42 470.05 40.17 473.76 40.97 473.76 41.89"/><polygon points="473.76 129.73 473.76 130.04 473.74 130.97 470.05 130.92 461.77 130.78 451.54 130.61 449.27 130.57 433.49 130.32 431.23 130.28 420.17 130.1 417.91 130.06 399.59 129.76 397.33 129.73 383.7 129.51 370.07 129.28 366.35 129.22 366.34 129.22 366.33 129.22 366.34 128.61 366.34 128.29 366.35 128.29 366.35 127.98 366.36 127.36 370.07 127.42 397.33 127.87 399.59 127.9 417.91 128.21 420.17 128.25 424.86 128.31 426.71 128.35 431.23 128.42 433.49 128.46 449.27 128.71 451.54 128.75 470.05 129.06 473.76 129.12 473.76 129.73"/><polygon points="399.6 133.44 397.34 133.44 397.34 21.31 399.6 22.29 399.6 133.44"/><polygon points="420.17 133.59 417.91 133.59 417.91 25.86 420.17 26.84 420.17 133.59"/><polygon points="451.53 133.83 449.27 133.83 449.27 32.79 451.53 33.77 451.53 133.83"/><polygon points="433.49 133.69 431.23 133.69 431.23 28.8 433.49 29.78 433.49 133.69"/><rect x="424.86" y="31.73" width="1.86" height="97.53"/><path d="M370.07,128.35l-3.72-.06h0v12.12h0l17.36-.1V128.58Zm5.56,8.49a2.56,2.56,0,0,1-1-.2,3,3,0,0,1-2-2.85,3,3,0,0,1,3-3,3,3,0,0,1,1.09,5.83A2.79,2.79,0,0,1,375.63,136.84Z"/><path d="M470.05,130l-8.28-.14v10l12-.07V130Zm-2.53,6.93a1.92,1.92,0,0,1-1.49-.78,2.87,2.87,0,0,1-.56-1.74,2.3,2.3,0,0,1,2-2.51,2.35,2.35,0,0,1,2.05,2.53,2.9,2.9,0,0,1-.54,1.71A1.88,1.88,0,0,1,467.52,136.92Z"/><path d="M366.35,7V19.12l3.72.78,13.65,2.9V11.07Zm12.23,9.36a2.33,2.33,0,0,1-2.95,2.37,4,4,0,0,1-3-3.68,2.31,2.31,0,0,1,1.69-2.37,2.68,2.68,0,0,1,1.29,0,3.68,3.68,0,0,1,1.3.61A3.93,3.93,0,0,1,378.58,16.37Z"/><path d="M461.77,29.33v10l8.28,1.75,3.71.79V32.14Zm5.75,4.28a2.58,2.58,0,0,1,1.59,1.26h0a3.54,3.54,0,0,1,.46,1.7c0,1.38-.91,2.3-2.05,2.06a3,3,0,0,1-2-3,2.36,2.36,0,0,1,.49-1.53A1.54,1.54,0,0,1,467.52,33.61Z"/><rect x="369.21" y="22.48" width="2.79" height="8.68" transform="translate(271.63 384.97) rotate(-78.69)"/><rect x="369.21" y="54.26" width="2.79" height="8.6" transform="translate(260.32 417.18) rotate(-81.88)"/><rect x="369.21" y="86.02" width="2.79" height="8.54" transform="translate(249.21 451.9) rotate(-85.14)"/><rect x="369.21" y="117.77" width="2.79" height="8.51" transform="translate(238.35 489.1) rotate(-88.41)"/><polygon points="473.76 46.02 470.05 45.29 467.79 44.95 467.24 47.68 470.05 48.13 473.49 48.82 473.76 47.45 473.76 46.02"/><polygon points="473.76 71.85 470.05 71.32 467.71 71.07 467.32 73.83 470.05 74.14 473.57 74.64 473.76 73.26 473.76 71.85"/><polygon points="473.76 97.67 470.05 97.36 467.63 97.2 467.4 99.98 470.05 100.16 473.65 100.46 473.76 99.07 473.76 97.67"/><polygon points="473.76 123.49 470.05 123.38 467.56 123.33 467.48 126.12 470.05 126.18 473.73 126.28 473.76 124.89 473.76 123.49"/><polygon points="398.56 93.92 412.21 95.59 412.11 96.77 398.37 96.24 398.56 93.92 398.56 93.92"/><rect x="407.3" y="93.1" width="2.32" height="5.57"/><polygon points="432.41 112.54 444.39 113.69 444.33 114.87 432.3 114.86 432.41 112.54 432.41 112.54"/><rect x="439.95" y="111.52" width="2.32" height="5.21"/><polygon points="418.98 114.22 405.68 113.01 405.74 111.83 419.09 111.9 418.98 114.22 418.98 114.22"/><rect x="408.29" y="109.82" width="2.32" height="5.56"/><path d="M362.43,14V136.49H341.17V26.91L362.43,14m3.92-7L337.26,24.71v115.7h29.08V7Z"/><polygon points="349.71 129.17 347.26 129.17 347.26 30.09 349.71 29.11 349.71 129.17"/><polygon points="356.35 129.17 353.9 129.17 353.9 26.72 356.35 25.74 356.35 129.17"/><path d="M461.77,29.33l-78-18.26L366.35,7v133.4l17.36-.1,78.06-.42,12-.07V32.14Zm8.28,106.79h-1a1.88,1.88,0,0,1-1.51.79,1.92,1.92,0,0,1-1.49-.78l-4.26,0-78.06.42-7,0a2.79,2.79,0,0,1-1.09.21,2.56,2.56,0,0,1-1-.2l-4.53,0v-125l4.27,1a2.68,2.68,0,0,1,1.29,0,3.68,3.68,0,0,1,1.3.61l6.79,1.59,78,18.27,4.19,1a1.54,1.54,0,0,1,1.56-.53,2.58,2.58,0,0,1,1.59,1.26h0l.94.21Z"/><polygon points="473.76 41.89 473.76 41.91 473.57 42.82 470.05 42.08 451.54 38.15 449.27 37.67 433.49 34.32 431.23 33.83 426.71 32.88 424.86 32.48 420.17 31.49 417.91 31.02 399.59 27.12 397.33 26.64 370.07 20.86 366.35 20.07 366.15 20.03 366.35 19.12 366.55 18.21 370.07 18.95 383.71 21.85 397.33 24.74 399.59 25.22 417.91 29.11 420.17 29.59 431.23 31.93 433.49 32.41 449.27 35.77 451.54 36.25 461.77 38.42 470.05 40.17 473.76 40.97 473.76 41.89"/><polygon points="473.76 129.73 473.76 130.04 473.74 130.97 470.05 130.92 461.77 130.78 451.54 130.61 449.27 130.57 433.49 130.32 431.23 130.28 420.17 130.1 417.91 130.06 399.59 129.76 397.33 129.73 383.7 129.51 370.07 129.28 366.35 129.22 366.34 129.22 366.33 129.22 366.34 128.61 366.34 128.29 366.35 128.29 366.35 127.98 366.36 127.36 370.07 127.42 397.33 127.87 399.59 127.9 417.91 128.21 420.17 128.25 424.86 128.31 426.71 128.35 431.23 128.42 433.49 128.46 449.27 128.71 451.54 128.75 470.05 129.06 473.76 129.12 473.76 129.73"/><polygon points="399.6 133.44 397.34 133.44 397.34 21.31 399.6 22.29 399.6 133.44"/><polygon points="420.17 133.59 417.91 133.59 417.91 25.86 420.17 26.84 420.17 133.59"/><polygon points="451.53 133.83 449.27 133.83 449.27 32.79 451.53 33.77 451.53 133.83"/><polygon points="433.49 133.69 431.23 133.69 431.23 28.8 433.49 29.78 433.49 133.69"/><rect x="424.86" y="31.73" width="1.86" height="97.53"/><path d="M370.07,128.35l-3.72-.06h0v12.12h0l17.36-.1V128.58Zm5.56,8.49a2.56,2.56,0,0,1-1-.2,3,3,0,0,1-2-2.85,3,3,0,0,1,3-3,3,3,0,0,1,1.09,5.83A2.79,2.79,0,0,1,375.63,136.84Z"/><path d="M470.05,130l-8.28-.14v10l12-.07V130Zm-2.53,6.93a1.92,1.92,0,0,1-1.49-.78,2.87,2.87,0,0,1-.56-1.74,2.3,2.3,0,0,1,2-2.51,2.35,2.35,0,0,1,2.05,2.53,2.9,2.9,0,0,1-.54,1.71A1.88,1.88,0,0,1,467.52,136.92Z"/><path d="M366.35,7V19.12l3.72.78,13.65,2.9V11.07Zm12.23,9.36a2.33,2.33,0,0,1-2.95,2.37,4,4,0,0,1-3-3.68,2.31,2.31,0,0,1,1.69-2.37,2.68,2.68,0,0,1,1.29,0,3.68,3.68,0,0,1,1.3.61A3.93,3.93,0,0,1,378.58,16.37Z"/><path d="M461.77,29.33v10l8.28,1.75,3.71.79V32.14Zm5.75,4.28a2.58,2.58,0,0,1,1.59,1.26h0a3.54,3.54,0,0,1,.46,1.7c0,1.38-.91,2.3-2.05,2.06a3,3,0,0,1-2-3,2.36,2.36,0,0,1,.49-1.53A1.54,1.54,0,0,1,467.52,33.61Z"/><rect x="369.21" y="22.48" width="2.79" height="8.68" transform="translate(271.63 384.97) rotate(-78.69)"/><rect x="369.21" y="54.26" width="2.79" height="8.6" transform="translate(260.32 417.18) rotate(-81.88)"/><rect x="369.21" y="86.02" width="2.79" height="8.54" transform="translate(249.21 451.9) rotate(-85.14)"/><rect x="369.21" y="117.77" width="2.79" height="8.51" transform="translate(238.35 489.1) rotate(-88.41)"/><polygon points="473.76 46.02 470.05 45.29 467.79 44.95 467.24 47.68 470.05 48.13 473.49 48.82 473.76 47.45 473.76 46.02"/><polygon points="473.76 71.85 470.05 71.32 467.71 71.07 467.32 73.83 470.05 74.14 473.57 74.64 473.76 73.26 473.76 71.85"/><polygon points="473.76 97.67 470.05 97.36 467.63 97.2 467.4 99.98 470.05 100.16 473.65 100.46 473.76 99.07 473.76 97.67"/><polygon points="473.76 123.49 470.05 123.38 467.56 123.33 467.48 126.12 470.05 126.18 473.73 126.28 473.76 124.89 473.76 123.49"/><polygon points="398.56 93.92 412.21 95.59 412.11 96.77 398.37 96.24 398.56 93.92 398.56 93.92"/><rect x="407.3" y="93.1" width="2.32" height="5.57"/><polygon points="432.41 112.54 444.39 113.69 444.33 114.87 432.3 114.86 432.41 112.54 432.41 112.54"/><rect x="439.95" y="111.52" width="2.32" height="5.21"/><polygon points="418.98 114.22 405.68 113.01 405.74 111.83 419.09 111.9 418.98 114.22 418.98 114.22"/><rect x="408.29" y="109.82" width="2.32" height="5.56"/><path d="M362.43,14V136.49H341.17V26.91L362.43,14m3.92-7L337.26,24.71v115.7h29.08V7Z"/><polygon points="349.71 129.17 347.26 129.17 347.26 30.09 349.71 29.11 349.71 129.17"/><polygon points="356.35 129.17 353.9 129.17 353.9 26.72 356.35 25.74 356.35 129.17"/><path d="M72.34,29.33,150.4,11.07,167.76,7v133.4l-17.35-.1-78.07-.42-12-.07V32.14ZM64.06,136.12h1a1.88,1.88,0,0,0,1.51.79,1.9,1.9,0,0,0,1.49-.78l4.26,0,78.07.42,7,0a2.82,2.82,0,0,0,1.09.21,2.56,2.56,0,0,0,1-.2l4.53,0v-125l-4.27,1a2.68,2.68,0,0,0-1.29,0,3.56,3.56,0,0,0-1.29.61l-6.79,1.59L72.34,33.16l-4.19,1a1.54,1.54,0,0,0-1.56-.53A2.58,2.58,0,0,0,65,34.87h0l-.94.21Z"/><polygon points="60.35 41.89 60.35 41.91 60.54 42.82 64.06 42.08 82.58 38.15 84.83 37.67 100.63 34.32 102.89 33.83 107.4 32.88 109.25 32.48 113.94 31.49 116.2 31.02 134.52 27.12 136.78 26.64 164.04 20.86 167.76 20.07 167.96 20.03 167.76 19.12 167.57 18.21 164.04 18.95 150.4 21.85 136.78 24.74 134.52 25.22 116.2 29.11 113.94 29.59 102.89 31.93 100.63 32.41 84.83 35.77 82.58 36.25 72.34 38.42 64.06 40.17 60.35 40.97 60.35 41.89"/><polygon points="60.35 129.73 60.35 130.04 60.37 130.97 64.06 130.92 72.34 130.78 82.58 130.61 84.83 130.57 100.63 130.32 102.89 130.28 113.94 130.1 116.2 130.06 134.52 129.76 136.78 129.73 150.41 129.51 164.04 129.28 167.76 129.22 167.77 129.22 167.78 129.22 167.77 128.61 167.77 128.29 167.76 128.29 167.76 127.98 167.75 127.36 164.04 127.42 136.78 127.87 134.52 127.9 116.2 128.21 113.94 128.25 109.25 128.31 107.4 128.35 102.89 128.42 100.63 128.46 84.83 128.71 82.58 128.75 64.06 129.06 60.35 129.12 60.35 129.73"/><polygon points="134.51 133.44 136.78 133.44 136.78 21.31 134.51 22.29 134.51 133.44"/><polygon points="113.94 133.59 116.2 133.59 116.2 25.86 113.94 26.84 113.94 133.59"/><polygon points="82.58 133.83 84.84 133.83 84.84 32.79 82.58 33.77 82.58 133.83"/><polygon points="100.62 133.69 102.88 133.69 102.88 28.8 100.62 29.78 100.62 133.69"/><rect x="107.4" y="31.73" width="1.86" height="97.53"/><path d="M164,128.35l3.72-.06h0v12.12h0l-17.35-.1V128.58Zm-5.56,8.49a2.56,2.56,0,0,0,1-.2,3,3,0,0,0,2-2.85,3,3,0,0,0-3-3,3,3,0,0,0-1.09,5.83A2.82,2.82,0,0,0,158.48,136.84Z"/><path d="M64.06,130l8.28-.14v10l-12-.07V130Zm2.53,6.93a1.9,1.9,0,0,0,1.49-.78,2.87,2.87,0,0,0,.56-1.74,2.3,2.3,0,0,0-2-2.51,2.35,2.35,0,0,0-2,2.53,2.9,2.9,0,0,0,.54,1.71A1.88,1.88,0,0,0,66.59,136.92Z"/><path d="M167.76,7V19.12L164,19.9,150.4,22.8V11.07Zm-12.23,9.36a2.33,2.33,0,0,0,2.95,2.37,4,4,0,0,0,3-3.68,2.31,2.31,0,0,0-1.69-2.37,2.68,2.68,0,0,0-1.29,0,3.56,3.56,0,0,0-1.29.61A3.91,3.91,0,0,0,155.53,16.37Z"/><path d="M72.34,29.33v10l-8.28,1.75-3.71.79V32.14Zm-5.75,4.28A2.58,2.58,0,0,0,65,34.87h0a3.54,3.54,0,0,0-.46,1.7c0,1.38.91,2.3,2,2.06a3,3,0,0,0,2-3,2.36,2.36,0,0,0-.49-1.53A1.54,1.54,0,0,0,66.59,33.61Z"/><rect x="159.17" y="25.43" width="8.68" height="2.79" transform="translate(-2.09 32.58) rotate(-11.31)"/><rect x="159.21" y="57.16" width="8.6" height="2.79" transform="matrix(0.99, -0.14, 0.14, 0.99, -6.63, 23.67)"/><rect x="159.24" y="88.89" width="8.54" height="2.79" transform="translate(-7.07 14.19) rotate(-4.86)"/><rect x="159.25" y="120.63" width="8.51" height="2.79" transform="translate(-3.32 4.58) rotate(-1.59)"/><polygon points="60.35 46.02 64.06 45.29 66.32 44.95 66.87 47.68 64.06 48.13 60.62 48.82 60.35 47.45 60.35 46.02"/><polygon points="60.35 71.85 64.06 71.32 66.4 71.07 66.79 73.83 64.06 74.14 60.54 74.64 60.35 73.26 60.35 71.85"/><polygon points="60.35 97.67 64.06 97.36 66.48 97.2 66.71 99.98 64.06 100.16 60.46 100.46 60.35 99.07 60.35 97.67"/><polygon points="60.35 123.49 64.06 123.38 66.55 123.33 66.63 126.12 64.06 126.18 60.39 126.28 60.35 124.89 60.35 123.49"/><polygon points="135.55 93.92 121.9 95.59 122 96.77 135.74 96.24 135.55 93.92 135.55 93.92"/><rect x="124.49" y="93.1" width="2.32" height="5.57"/><polygon points="101.7 112.54 89.72 113.69 89.78 114.87 101.81 114.86 101.7 112.54 101.7 112.54"/><rect x="91.84" y="111.52" width="2.32" height="5.21"/><polygon points="115.13 114.22 128.43 113.01 128.37 111.83 115.02 111.9 115.13 114.22 115.13 114.22"/><rect x="123.5" y="109.82" width="2.32" height="5.56"/><path d="M171.68,14l21.26,12.94V136.49H171.68V14m-3.92-7V140.41h29.08V24.71L167.76,7Z"/><polygon points="184.4 129.17 186.85 129.17 186.85 30.09 184.4 29.11 184.4 129.17"/><polygon points="177.76 129.17 180.21 129.17 180.21 26.72 177.76 25.74 177.76 129.17"/><path d="M1.52,223.16a44.41,44.41,0,0,1,0-23,23.31,23.31,0,0,1,3.93-7.9,19.31,19.31,0,0,1,5.8-4.81,23.18,23.18,0,0,1,6.63-2.48,37.59,37.59,0,0,1,7-.62A43.63,43.63,0,0,1,41,187.47v9a36.29,36.29,0,0,0-15.31-3.51,25.53,25.53,0,0,0-6.15.64,14.17,14.17,0,0,0-5,2.48,11.32,11.32,0,0,0-3.7,5.74,38.76,38.76,0,0,0,0,19.68,11.23,11.23,0,0,0,3.7,5.74,14,14,0,0,0,5,2.48,25.49,25.49,0,0,0,6.15.65A36.16,36.16,0,0,0,41,226.83v8.95A43.28,43.28,0,0,1,24.88,239a36.74,36.74,0,0,1-7-.63,22.6,22.6,0,0,1-6.63-2.48,19.13,19.13,0,0,1-5.8-4.8A23.28,23.28,0,0,1,1.52,223.16Z"/><path d="M53.88,211.68a39.06,39.06,0,0,1,1.53-11.5,23.22,23.22,0,0,1,3.92-7.9,19.25,19.25,0,0,1,5.8-4.79A22.94,22.94,0,0,1,71.77,185a39.71,39.71,0,0,1,14,0,23,23,0,0,1,6.64,2.48,19.74,19.74,0,0,1,5.83,4.79,22.89,22.89,0,0,1,4,7.9,44.26,44.26,0,0,1,0,23,22.38,22.38,0,0,1-4,7.92,20.15,20.15,0,0,1-5.83,4.77,22.76,22.76,0,0,1-6.64,2.48,39.09,39.09,0,0,1-14,0,22.66,22.66,0,0,1-6.64-2.48,19.63,19.63,0,0,1-5.8-4.77,22.7,22.7,0,0,1-3.92-7.92A39.39,39.39,0,0,1,53.88,211.68Zm9.61-.08a35,35,0,0,0,1.19,9.94,11.35,11.35,0,0,0,3.51,5.79A13.27,13.27,0,0,0,73,229.84a22.37,22.37,0,0,0,5.8.66,27,27,0,0,0,4.72-.35,13.22,13.22,0,0,0,4.1-1.5A9.39,9.39,0,0,0,91,225.46a18.72,18.72,0,0,0,2.2-5.55,40.57,40.57,0,0,0-.31-18.16A11.19,11.19,0,0,0,89.36,196a13.26,13.26,0,0,0-4.77-2.48,23.77,23.77,0,0,0-5.83-.62,27.55,27.55,0,0,0-4.65.35A13.58,13.58,0,0,0,70,194.73a9.59,9.59,0,0,0-3.44,3.16,18,18,0,0,0-2.18,5.45A33.83,33.83,0,0,0,63.49,211.6Z"/><path d="M119.75,238.35V185h10.9l27.41,39.52V185h9.61v53.34H156.93l-27.57-39.83v39.83Z"/><path d="M182,194.62V185h43.74v9.61H208.62v43.73H199V194.62Z"/><path d="M229.16,238.35,250.36,185h10.55l21.2,53.34H271.8l-4.88-12.88H244.35l-4.88,12.88Zm18.47-21.51h15.93l-7.92-20.93Z"/><path d="M296,238.35V185h9.6v53.34Z"/><path d="M323.88,238.35V185h10.9l27.41,39.52V185h9.61v53.34H361.06l-27.57-39.83v39.83Z"/><path d="M390.34,238.35V185h35.5v8.63H400v13.51H422.4v9.06H400v13.51h25.89v8.63Z"/><path d="M441.69,238.35V185h20.48q9.38,0,14.58,4.45c3.46,3,5.2,7.2,5.2,12.72q0,12.18-11.72,15.76l14,20.41h-11.6l-12.73-18.82h-8.63v18.82Zm9.6-27.6h10.62a14.36,14.36,0,0,0,7.66-1.75q2.78-1.74,2.77-6.59t-2.77-6.63a14.57,14.57,0,0,0-7.66-1.71H451.29Z"/><path d="M497.4,200q0-7.75,5.43-11.69t13.59-3.93a30.77,30.77,0,0,1,14.33,3.72v9.4a23.54,23.54,0,0,0-13.2-4.06,16.58,16.58,0,0,0-7.47,1.52,5,5,0,0,0-3.07,4.8,4.59,4.59,0,0,0,2.79,4.16,30.77,30.77,0,0,0,6.76,2.54,71.64,71.64,0,0,1,8,2.6,15.14,15.14,0,0,1,6.8,5.4,16.54,16.54,0,0,1,2.79,9.94,12.6,12.6,0,0,1-5.35,10.5,20.93,20.93,0,0,1-13,4.07,33.6,33.6,0,0,1-17.61-4.47V224.8a25.14,25.14,0,0,0,15.38,5.12q11,0,11-6.13a6,6,0,0,0-2-4.61,12.24,12.24,0,0,0-5-2.71c-2-.59-4.21-1.28-6.52-2.07a69.39,69.39,0,0,1-6.53-2.6,12,12,0,0,1-5-4.39A13,13,0,0,1,497.4,200Z"/></g></g></svg>