<svg xmlns="http://www.w3.org/2000/svg" viewBox="0 0 1081 1081"><defs><style>.cls-1{fill:#e3100f;}.cls-2{fill:#fff;}</style></defs><g id="Layer_2" data-name="Layer 2"><g id="Layer_1-2" data-name="Layer 1"><rect class="cls-1" width="1081" height="1081"/><path class="cls-2" d="M683.84,397.17V683.83H397.17V397.17H683.84m8.46-8.46H388.71V692.29H692.3V388.71Z"/><rect class="cls-2" x="388.71" y="414.15" width="303.59" height="4.23"/><rect class="cls-2" x="388.71" y="662.62" width="303.59" height="4.23"/><rect class="cls-2" x="463.89" y="405.11" width="5.14" height="270.79"/><rect class="cls-2" x="518.9" y="405.11" width="5.14" height="270.79"/><rect class="cls-2" x="611.97" y="405.11" width="5.14" height="270.79"/><rect class="cls-2" x="556.97" y="405.11" width="5.14" height="270.79"/><rect class="cls-2" x="538.39" y="416.27" width="4.23" height="248.46"/><path class="cls-2" d="M388.7,664.73v27.56h40.89V664.73Zm21.55,19.43a7,7,0,1,1,7-7A7,7,0,0,1,410.25,684.16Z"/><path class="cls-2" d="M692.3,664.73v27.56H651.41V664.73Zm-21.55,19.43a7,7,0,1,0-7-7A7,7,0,0,0,670.75,684.16Z"/><path class="cls-2" d="M388.71,416.27V388.71H429.6v27.56Zm21.55-19.43a7,7,0,1,0,7,7A7,7,0,0,0,410.26,396.84Z"/><path class="cls-2" d="M692.3,416.27V388.71H651.41v27.56Zm-21.55-19.43a7,7,0,1,1-7,7A7,7,0,0,1,670.75,396.84Z"/><rect class="cls-2" x="388.71" y="428.7" width="19.71" height="6.35"/><rect class="cls-2" x="388.71" y="501.47" width="19.71" height="6.35"/><rect class="cls-2" x="388.71" y="574.24" width="19.71" height="6.35"/><rect class="cls-2" x="388.71" y="647.01" width="19.71" height="6.35"/><rect class="cls-2" x="672.59" y="428.7" width="19.71" height="6.35"/><rect class="cls-2" x="672.59" y="501.47" width="19.71" height="6.35"/><rect class="cls-2" x="672.59" y="574.24" width="19.71" height="6.35"/><rect class="cls-2" x="672.59" y="647.01" width="19.71" height="6.35"/><polygon class="cls-2" points="466.46 580.61 502.59 581.91 502.59 584.61 466.46 585.9 466.46 580.61 466.46 580.61"/><rect class="cls-2" x="490" y="576.4" width="5.29" height="13.71"/><polygon class="cls-2" points="559.54 621.63 595.67 622.93 595.67 625.63 559.54 626.92 559.54 621.63 559.54 621.63"/><rect class="cls-2" x="583.08" y="617.43" width="5.29" height="13.71"/><polygon class="cls-2" points="521.47 626.92 485.34 625.63 485.34 622.93 521.47 621.63 521.47 626.92 521.47 626.92"/><rect class="cls-2" x="492.65" y="617.43" width="5.29" height="13.71"/><path class="cls-2" d="M961.51,452.13l-168.77-39.5-37.55-8.78V692.29l37.53-.21,168.79-.91,25.94-.15V458.2ZM979.41,683l-2.2,0a3.94,3.94,0,0,1-6.48,0l-9.22.06L792.72,684l-15.1.09a6.35,6.35,0,0,1-2.35.46,5.81,5.81,0,0,1-2.24-.44l-9.8.06V414l9.25,2.15a6,6,0,0,1,2.79,0,8,8,0,0,1,2.79,1.32l14.68,3.44,168.77,39.5,9,2.11a3.39,3.39,0,0,1,3.39-1.14,5.74,5.74,0,0,1,3.43,2.73v0l2,.47Z"/><polygon class="cls-2" points="987.45 479.29 987.45 479.33 987.02 481.3 979.41 479.69 939.38 471.19 934.5 470.15 900.35 462.92 895.47 461.86 885.72 459.81 881.7 458.94 871.56 456.8 866.68 455.77 827.08 447.35 822.19 446.31 763.23 433.81 755.19 432.09 754.77 432.01 755.19 430.04 755.62 428.07 763.23 429.68 792.74 435.94 822.19 442.21 827.08 443.24 866.68 451.64 871.56 452.68 895.47 457.75 900.35 458.79 934.5 466.05 939.38 467.08 961.51 471.78 979.41 475.57 987.45 477.28 987.45 479.29"/><polygon class="cls-2" points="987.45 669.21 987.45 669.89 987.4 671.9 979.41 671.77 961.51 671.48 939.38 671.12 934.5 671.03 900.35 670.48 895.47 670.4 871.56 670.02 866.68 669.93 827.08 669.27 822.19 669.21 792.72 668.73 763.23 668.24 755.19 668.11 755.17 668.11 755.15 668.11 755.17 666.78 755.17 666.1 755.19 666.1 755.19 665.42 755.22 664.09 763.23 664.22 822.19 665.19 827.08 665.26 866.68 665.91 871.56 666 881.7 666.14 885.72 666.23 895.47 666.38 900.35 666.46 934.5 667.01 939.38 667.1 979.41 667.75 987.45 667.88 987.45 669.21"/><polygon class="cls-2" points="827.08 677.23 822.19 677.23 822.19 434.79 827.08 436.9 827.08 677.23"/><polygon class="cls-2" points="871.55 677.56 866.67 677.56 866.67 444.62 871.55 446.73 871.55 677.56"/><polygon class="cls-2" points="939.38 678.07 934.49 678.07 934.49 459.61 939.38 461.73 939.38 678.07"/><polygon class="cls-2" points="900.36 677.78 895.47 677.78 895.47 450.99 900.36 453.1 900.36 677.78"/><rect class="cls-2" x="881.7" y="457.32" width="4.02" height="210.88"/><path class="cls-2" d="M763.23,666.23l-8-.13h0v26.19h0l37.53-.21V666.72Zm12,18.36a5.81,5.81,0,0,1-2.24-.44,6.53,6.53,0,0,1-4.21-6.16,6.39,6.39,0,0,1,6.45-6.47,6.56,6.56,0,0,1,2.35,12.61A6.35,6.35,0,0,1,775.27,684.59Z"/><path class="cls-2" d="M979.41,669.76l-17.9-.29v21.7l25.94-.15V669.89Zm-5.46,15a4.13,4.13,0,0,1-3.22-1.69,6.21,6.21,0,0,1-1.22-3.77c0-3,2-5.43,4.44-5.41s4.42,2.47,4.42,5.45a6.25,6.25,0,0,1-1.16,3.71A4.11,4.11,0,0,1,974,684.76Z"/><path class="cls-2" d="M755.19,403.85V430l8,1.69L792.74,438V412.63Zm26.45,20.25a5,5,0,0,1-6.37,5.12,8.55,8.55,0,0,1-6.45-8,5,5,0,0,1,3.66-5.12,6,6,0,0,1,2.79,0,8,8,0,0,1,2.79,1.32A8.48,8.48,0,0,1,781.64,424.1Z"/><path class="cls-2" d="M961.51,452.13v21.7l17.9,3.79,8,1.71V458.2ZM974,461.37a5.74,5.74,0,0,1,3.43,2.73v0a7.58,7.58,0,0,1,1,3.68c0,3-2,5-4.42,4.44s-4.44-3.4-4.44-6.4a5.26,5.26,0,0,1,1-3.33A3.39,3.39,0,0,1,974,461.37Z"/><rect class="cls-2" x="761.38" y="437.32" width="6.03" height="18.76" transform="translate(176.48 1108.66) rotate(-78.69)"/><rect class="cls-2" x="761.38" y="506.02" width="6.03" height="18.59" transform="matrix(0.14, -0.99, 0.99, 0.14, 146.33, 1199.31)"/><rect class="cls-2" x="761.38" y="574.69" width="6.03" height="18.47" transform="translate(117.75 1296.05) rotate(-85.14)"/><rect class="cls-2" x="761.38" y="643.34" width="6.03" height="18.41" transform="matrix(0.03, -1, 1, 0.03, 90.91, 1398.55)"/><polygon class="cls-2" points="987.45 488.22 979.41 486.63 974.53 485.89 973.35 491.79 979.41 492.76 986.85 494.27 987.45 491.31 987.45 488.22"/><polygon class="cls-2" points="987.45 544.06 979.41 542.92 974.36 542.37 973.52 548.34 979.41 549.01 987.02 550.09 987.45 547.11 987.45 544.06"/><polygon class="cls-2" points="987.45 599.89 979.41 599.21 974.19 598.87 973.68 604.88 979.41 605.26 987.19 605.92 987.45 602.91 987.45 599.89"/><polygon class="cls-2" points="987.45 655.72 979.41 655.48 974.02 655.38 973.85 661.41 979.41 661.53 987.36 661.74 987.45 658.74 987.45 655.72"/><polygon class="cls-2" points="824.84 591.78 854.35 595.4 854.14 597.95 824.43 596.79 824.84 591.78 824.84 591.78"/><rect class="cls-2" x="843.74" y="590.01" width="5.02" height="12.04"/><polygon class="cls-2" points="898.04 632.04 923.93 634.52 923.81 637.08 897.79 637.06 898.04 632.04 898.04 632.04"/><rect class="cls-2" x="914.34" y="629.82" width="5.02" height="11.27"/><polygon class="cls-2" points="868.99 635.67 840.24 633.05 840.37 630.49 869.23 630.65 868.99 635.67 868.99 635.67"/><rect class="cls-2" x="845.88" y="626.15" width="5.02" height="12.01"/><path class="cls-2" d="M746.73,418.9V683.83h-46V446.89l46-28m8.46-15L692.3,442.13V692.29h62.88V403.85Z"/><polygon class="cls-2" points="719.21 668 713.92 668 713.92 453.76 719.21 451.65 719.21 668"/><polygon class="cls-2" points="733.57 668 728.28 668 728.28 446.48 733.57 444.36 733.57 668"/><path class="cls-2" d="M961.51,452.13l-168.77-39.5-37.55-8.78V692.29l37.53-.21,168.79-.91,25.94-.15V458.2ZM979.41,683l-2.2,0a3.94,3.94,0,0,1-6.48,0l-9.22.06L792.72,684l-15.1.09a6.35,6.35,0,0,1-2.35.46,5.81,5.81,0,0,1-2.24-.44l-9.8.06V414l9.25,2.15a6,6,0,0,1,2.79,0,8,8,0,0,1,2.79,1.32l14.68,3.44,168.77,39.5,9,2.11a3.39,3.39,0,0,1,3.39-1.14,5.74,5.74,0,0,1,3.43,2.73v0l2,.47Z"/><polygon class="cls-2" points="987.45 479.29 987.45 479.33 987.02 481.3 979.41 479.69 939.38 471.19 934.5 470.15 900.35 462.92 895.47 461.86 885.72 459.81 881.7 458.94 871.56 456.8 866.68 455.77 827.08 447.35 822.19 446.31 763.23 433.81 755.19 432.09 754.77 432.01 755.19 430.04 755.62 428.07 763.23 429.68 792.74 435.94 822.19 442.21 827.08 443.24 866.68 451.64 871.56 452.68 895.47 457.75 900.35 458.79 934.5 466.05 939.38 467.08 961.51 471.78 979.41 475.57 987.45 477.28 987.45 479.29"/><polygon class="cls-2" points="987.45 669.21 987.45 669.89 987.4 671.9 979.41 671.77 961.51 671.48 939.38 671.12 934.5 671.03 900.35 670.48 895.47 670.4 871.56 670.02 866.68 669.93 827.08 669.27 822.19 669.21 792.72 668.73 763.23 668.24 755.19 668.11 755.17 668.11 755.15 668.11 755.17 666.78 755.17 666.1 755.19 666.1 755.19 665.42 755.22 664.09 763.23 664.22 822.19 665.19 827.08 665.26 866.68 665.91 871.56 666 881.7 666.14 885.72 666.23 895.47 666.38 900.35 666.46 934.5 667.01 939.38 667.1 979.41 667.75 987.45 667.88 987.45 669.21"/><polygon class="cls-2" points="827.08 677.23 822.19 677.23 822.19 434.79 827.08 436.9 827.08 677.23"/><polygon class="cls-2" points="871.55 677.56 866.67 677.56 866.67 444.62 871.55 446.73 871.55 677.56"/><polygon class="cls-2" points="939.38 678.07 934.49 678.07 934.49 459.61 939.38 461.73 939.38 678.07"/><polygon class="cls-2" points="900.36 677.78 895.47 677.78 895.47 450.99 900.36 453.1 900.36 677.78"/><rect class="cls-2" x="881.7" y="457.32" width="4.02" height="210.88"/><path class="cls-2" d="M763.23,666.23l-8-.13h0v26.19h0l37.53-.21V666.72Zm12,18.36a5.81,5.81,0,0,1-2.24-.44,6.53,6.53,0,0,1-4.21-6.16,6.39,6.39,0,0,1,6.45-6.47,6.56,6.56,0,0,1,2.35,12.61A6.35,6.35,0,0,1,775.27,684.59Z"/><path class="cls-2" d="M979.41,669.76l-17.9-.29v21.7l25.94-.15V669.89Zm-5.46,15a4.13,4.13,0,0,1-3.22-1.69,6.21,6.21,0,0,1-1.22-3.77c0-3,2-5.43,4.44-5.41s4.42,2.47,4.42,5.45a6.25,6.25,0,0,1-1.16,3.71A4.11,4.11,0,0,1,974,684.76Z"/><path class="cls-2" d="M755.19,403.85V430l8,1.69L792.74,438V412.63Zm26.45,20.25a5,5,0,0,1-6.37,5.12,8.55,8.55,0,0,1-6.45-8,5,5,0,0,1,3.66-5.12,6,6,0,0,1,2.79,0,8,8,0,0,1,2.79,1.32A8.48,8.48,0,0,1,781.64,424.1Z"/><path class="cls-2" d="M961.51,452.13v21.7l17.9,3.79,8,1.71V458.2ZM974,461.37a5.74,5.74,0,0,1,3.43,2.73v0a7.58,7.58,0,0,1,1,3.68c0,3-2,5-4.42,4.44s-4.44-3.4-4.44-6.4a5.26,5.26,0,0,1,1-3.33A3.39,3.39,0,0,1,974,461.37Z"/><rect class="cls-2" x="761.38" y="437.32" width="6.03" height="18.76" transform="translate(176.48 1108.66) rotate(-78.69)"/><rect class="cls-2" x="761.38" y="506.02" width="6.03" height="18.59" transform="matrix(0.14, -0.99, 0.99, 0.14, 146.33, 1199.31)"/><rect class="cls-2" x="761.38" y="574.69" width="6.03" height="18.47" transform="translate(117.75 1296.05) rotate(-85.14)"/><rect class="cls-2" x="761.38" y="643.34" width="6.03" height="18.41" transform="matrix(0.03, -1, 1, 0.03, 90.91, 1398.55)"/><polygon class="cls-2" points="987.45 488.22 979.41 486.63 974.53 485.89 973.35 491.79 979.41 492.76 986.85 494.27 987.45 491.31 987.45 488.22"/><polygon class="cls-2" points="987.45 544.06 979.41 542.92 974.36 542.37 973.52 548.34 979.41 549.01 987.02 550.09 987.45 547.11 987.45 544.06"/><polygon class="cls-2" points="987.45 599.89 979.41 599.21 974.19 598.87 973.68 604.88 979.41 605.26 987.19 605.92 987.45 602.91 987.45 599.89"/><polygon class="cls-2" points="987.45 655.72 979.41 655.48 974.02 655.38 973.85 661.41 979.41 661.53 987.36 661.74 987.45 658.74 987.45 655.72"/><polygon class="cls-2" points="824.84 591.78 854.35 595.4 854.14 597.95 824.43 596.79 824.84 591.78 824.84 591.78"/><rect class="cls-2" x="843.74" y="590.01" width="5.02" height="12.04"/><polygon class="cls-2" points="898.04 632.04 923.93 634.52 923.81 637.08 897.79 637.06 898.04 632.04 898.04 632.04"/><rect class="cls-2" x="914.34" y="629.82" width="5.02" height="11.27"/><polygon class="cls-2" points="868.99 635.67 840.24 633.05 840.37 630.49 869.23 630.65 868.99 635.67 868.99 635.67"/><rect class="cls-2" x="845.88" y="626.15" width="5.02" height="12.01"/><path class="cls-2" d="M746.73,418.9V683.83h-46V446.89l46-28m8.46-15L692.3,442.13V692.29h62.88V403.85Z"/><polygon class="cls-2" points="719.21 668 713.92 668 713.92 453.76 719.21 451.65 719.21 668"/><polygon class="cls-2" points="733.57 668 728.28 668 728.28 446.48 733.57 444.36 733.57 668"/><path class="cls-2" d="M119.49,452.13l168.77-39.5,37.55-8.78V692.29l-37.53-.21-168.79-.91L93.55,691V458.2ZM101.59,683l2.2,0a3.94,3.94,0,0,0,6.48,0l9.22.06,168.79.91,15.1.09a6.35,6.35,0,0,0,2.35.46,5.81,5.81,0,0,0,2.24-.44l9.8.06V414l-9.25,2.15a6,6,0,0,0-2.79,0,8,8,0,0,0-2.79,1.32l-14.68,3.44L119.49,460.4l-9,2.11a3.39,3.39,0,0,0-3.39-1.14,5.74,5.74,0,0,0-3.43,2.73v0l-2,.47Z"/><polygon class="cls-2" points="93.55 479.29 93.55 479.33 93.98 481.3 101.59 479.69 141.62 471.19 146.5 470.15 180.65 462.92 185.53 461.86 195.28 459.81 199.3 458.94 209.44 456.8 214.32 455.77 253.92 447.35 258.81 446.31 317.77 433.81 325.81 432.09 326.23 432.01 325.81 430.04 325.38 428.07 317.77 429.68 288.26 435.94 258.81 442.21 253.92 443.24 214.32 451.64 209.44 452.68 185.53 457.75 180.65 458.79 146.5 466.05 141.62 467.08 119.49 471.78 101.59 475.57 93.55 477.28 93.55 479.29"/><polygon class="cls-2" points="93.55 669.21 93.55 669.89 93.6 671.9 101.59 671.77 119.49 671.48 141.62 671.12 146.5 671.03 180.65 670.48 185.53 670.4 209.44 670.02 214.32 669.93 253.92 669.27 258.81 669.21 288.28 668.73 317.77 668.24 325.81 668.11 325.83 668.11 325.85 668.11 325.83 666.78 325.83 666.1 325.81 666.1 325.81 665.42 325.79 664.09 317.77 664.22 258.81 665.19 253.92 665.26 214.32 665.91 209.44 666 199.3 666.14 195.28 666.23 185.53 666.38 180.65 666.46 146.5 667.01 141.62 667.1 101.59 667.75 93.55 667.88 93.55 669.21"/><polygon class="cls-2" points="253.92 677.23 258.81 677.23 258.81 434.79 253.92 436.9 253.92 677.23"/><polygon class="cls-2" points="209.44 677.56 214.33 677.56 214.33 444.62 209.44 446.73 209.44 677.56"/><polygon class="cls-2" points="141.63 678.07 146.51 678.07 146.51 459.61 141.63 461.73 141.63 678.07"/><polygon class="cls-2" points="180.64 677.78 185.53 677.78 185.53 450.99 180.64 453.1 180.64 677.78"/><rect class="cls-2" x="195.28" y="457.32" width="4.02" height="210.88"/><path class="cls-2" d="M317.77,666.23l8-.13h0v26.19h0l-37.53-.21V666.72Zm-12,18.36a5.81,5.81,0,0,0,2.24-.44,6.53,6.53,0,0,0,4.21-6.16,6.39,6.39,0,0,0-6.45-6.47,6.56,6.56,0,0,0-2.35,12.61A6.35,6.35,0,0,0,305.73,684.59Z"/><path class="cls-2" d="M101.59,669.76l17.9-.29v21.7L93.55,691V669.89Zm5.46,15a4.13,4.13,0,0,0,3.22-1.69,6.21,6.21,0,0,0,1.22-3.77c0-3-2-5.43-4.44-5.41s-4.42,2.47-4.42,5.45a6.25,6.25,0,0,0,1.16,3.71A4.11,4.11,0,0,0,107.05,684.76Z"/><path class="cls-2" d="M325.81,403.85V430l-8,1.69L288.26,438V412.63ZM299.36,424.1a5,5,0,0,0,6.37,5.12,8.55,8.55,0,0,0,6.45-8,5,5,0,0,0-3.66-5.12,6,6,0,0,0-2.79,0,8,8,0,0,0-2.79,1.32A8.48,8.48,0,0,0,299.36,424.1Z"/><path class="cls-2" d="M119.49,452.13v21.7l-17.9,3.79-8,1.71V458.2Zm-12.44,9.24a5.74,5.74,0,0,0-3.43,2.73v0a7.58,7.58,0,0,0-1,3.68c0,3,2,5,4.42,4.44s4.44-3.4,4.44-6.4a5.26,5.26,0,0,0-1-3.33A3.39,3.39,0,0,0,107.05,461.37Z"/><rect class="cls-2" x="307.23" y="443.69" width="18.76" height="6.03" transform="translate(-81.44 70.75) rotate(-11.31)"/><rect class="cls-2" x="307.32" y="512.3" width="18.59" height="6.03" transform="translate(-69.57 49.85) rotate(-8.12)"/><rect class="cls-2" x="307.38" y="580.91" width="18.47" height="6.03" transform="translate(-48.38 28.95) rotate(-4.86)"/><rect class="cls-2" x="307.41" y="649.53" width="18.41" height="6.03" transform="translate(-17.97 9.03) rotate(-1.59)"/><polygon class="cls-2" points="93.55 488.22 101.59 486.63 106.47 485.89 107.65 491.79 101.59 492.76 94.15 494.27 93.55 491.31 93.55 488.22"/><polygon class="cls-2" points="93.55 544.06 101.59 542.92 106.64 542.37 107.48 548.34 101.59 549.01 93.98 550.09 93.55 547.11 93.55 544.06"/><polygon class="cls-2" points="93.55 599.89 101.59 599.21 106.81 598.87 107.31 604.88 101.59 605.26 93.81 605.92 93.55 602.91 93.55 599.89"/><polygon class="cls-2" points="93.55 655.72 101.59 655.48 106.98 655.38 107.15 661.41 101.59 661.53 93.64 661.74 93.55 658.74 93.55 655.72"/><polygon class="cls-2" points="256.16 591.78 226.65 595.4 226.86 597.95 256.57 596.79 256.16 591.78 256.16 591.78"/><rect class="cls-2" x="232.24" y="590.01" width="5.02" height="12.04"/><polygon class="cls-2" points="182.96 632.04 157.07 634.52 157.19 637.08 183.21 637.06 182.96 632.04 182.96 632.04"/><rect class="cls-2" x="161.64" y="629.82" width="5.02" height="11.27"/><polygon class="cls-2" points="212.01 635.67 240.76 633.05 240.63 630.49 211.77 630.65 212.01 635.67 212.01 635.67"/><rect class="cls-2" x="230.1" y="626.15" width="5.02" height="12.01"/><path class="cls-2" d="M334.27,418.9l46,28V683.83h-46V418.9m-8.46-15V692.29H388.7V442.13l-62.89-38.28Z"/><polygon class="cls-2" points="361.79 668 367.08 668 367.08 453.76 361.79 451.65 361.79 668"/><polygon class="cls-2" points="347.43 668 352.72 668 352.72 446.48 347.43 444.36 347.43 668"/></g></g></svg>